<?xml version="1.0" encoding="UTF-8"?>
<svg version="1.1" xmlns="http://www.w3.org/2000/svg" viewBox="0 0 512 512" rx="54">
<path d="M0 0 C1.41818965 -0.00274728 2.83637724 -0.00680505 4.25455987 -0.01204365 C8.11477303 -0.0225414 11.97475161 -0.01456008 15.83495426 -0.00329316 C20.01221737 0.0056037 24.18945157 -0.00291034 28.36671448 -0.00915527 C36.53486085 -0.01861303 44.70291849 -0.01207026 52.87105824 0.00010767 C62.39228669 0.01377097 71.91349433 0.01208603 81.4347301 0.00997434 C98.42683163 0.00678895 115.41889115 0.01842691 132.41098022 0.03804016 C148.88332396 0.05704837 165.35561849 0.06412557 181.82797241 0.05854797 C199.78683691 0.05248499 217.74567981 0.05267632 235.70454252 0.06403381 C237.62077101 0.06524104 239.5369995 0.06644702 241.453228 0.06765175 C242.39593515 0.06825529 243.33864229 0.06885883 244.30991632 0.06948065 C250.94035386 0.07335335 257.57078334 0.07296872 264.20122147 0.0710659 C272.28433268 0.06893998 280.3674009 0.07419827 288.45050003 0.08867946 C292.57136442 0.0959038 296.69216631 0.10001723 300.81303596 0.0954361 C304.59047221 0.09133899 308.3677798 0.0965835 312.1451966 0.10906217 C314.14760775 0.11334453 316.15003253 0.10792265 318.15243971 0.10207289 C334.6950017 0.18189443 349.17161788 3.54707049 361.46176147 15.25312805 C374.8055879 29.77003812 377.80962537 46.38613357 377.74307251 65.53071594 C377.7453813 66.93480369 377.74856062 68.33889023 377.752527 69.74297428 C377.76082621 73.57345315 377.75677207 77.40383154 377.75055456 81.23431063 C377.746011 85.37615906 377.75302325 89.51799076 377.7585144 93.65983582 C377.76738978 101.76273034 377.76549468 109.86558773 377.75968912 117.96848369 C377.75516533 124.55613557 377.75456283 131.14377707 377.75673676 137.73143005 C377.75704322 138.67038653 377.75734969 139.60934301 377.75766544 140.57675272 C377.75830492 142.48445281 377.75895334 144.39215289 377.75961062 146.29985297 C377.76530848 164.17228506 377.75876457 182.04469662 377.74800989 199.91712534 C377.73907488 215.23974851 377.74062707 230.56234137 377.74984741 245.88496399 C377.76055966 263.69512016 377.76475921 281.50525835 377.75862288 299.31541729 C377.75798581 301.21594937 377.75735707 303.11648146 377.75673676 305.01701355 C377.7564282 305.95201834 377.75611965 306.88702314 377.75580175 307.85036141 C377.75407768 314.42717711 377.75698371 321.00398136 377.76169586 327.58079529 C377.7673153 335.599905 377.76576591 343.61897558 377.75513437 351.63808084 C377.74989197 355.72652988 377.74779645 359.81491377 377.75443268 363.90336227 C377.76042398 367.65126764 377.75706496 371.39904788 377.74647757 375.14694202 C377.74321093 377.13354534 377.74968598 379.12015744 377.75659204 381.10675144 C377.68718123 397.07001924 373.61526553 409.68077721 365.48910522 423.3742218 C364.82910522 423.3742218 364.16910522 423.3742218 363.48910522 423.3742218 C362.82910522 424.6942218 362.16910522 426.0142218 361.48910522 427.3742218 C360.82910522 427.3742218 360.16910522 427.3742218 359.48910522 427.3742218 C359.15910522 428.3642218 358.82910522 429.3542218 358.48910522 430.3742218 C356.23910522 431.8742218 356.23910522 431.8742218 353.48910522 433.3742218 C352.39275757 434.09738586 352.39275757 434.09738586 351.27426147 434.8351593 C347.97315935 436.65933074 344.82553655 437.55251235 341.17660522 438.4992218 C339.92234741 438.83179993 338.6680896 439.16437805 337.37582397 439.5070343 C328.81654107 441.41674365 320.56143741 441.51851709 311.82072449 441.50793457 C310.4330267 441.50980479 309.04532944 441.51210633 307.65763301 441.51479989 C303.85846935 441.52089834 300.05932776 441.52078661 296.26016033 441.51960552 C292.15707937 441.51940101 288.05400541 441.52492504 283.95092773 441.52966309 C275.91714673 441.53795967 267.88337306 441.54071749 259.84958813 441.54127546 C253.31670829 441.54175113 246.78383085 441.54380843 240.25095177 441.54697609 C221.71532227 441.55578027 203.17969857 441.56039588 184.64406697 441.55964562 C183.64538809 441.55960566 182.64670921 441.5595657 181.61776733 441.55952454 C180.6178642 441.55948366 179.61796107 441.55944277 178.58775785 441.55940066 C162.38869024 441.55899434 146.18964589 441.5685608 129.99058501 441.5826629 C113.34405464 441.59703979 96.6975356 441.60393235 80.05099887 441.60306913 C70.71068921 441.60273759 61.37040393 441.60546557 52.03009987 441.61624718 C44.0764884 441.6253695 36.12291236 441.62751326 28.16929791 441.62073775 C24.11504853 441.61748117 20.06086707 441.61738457 16.00662422 441.626091 C12.28748851 441.6339953 8.56847413 441.63248483 4.84934124 441.62380687 C2.88295887 441.62156328 0.91657262 441.6290696 -1.04979485 441.63704652 C-20.83620438 441.56089191 -36.02929832 438.05653352 -50.33120728 423.9523468 C-51.51089478 422.3742218 -51.51089478 422.3742218 -51.51089478 419.3742218 C-52.50089478 419.0442218 -53.49089478 418.7142218 -54.51089478 418.3742218 C-55.57339478 416.7726593 -55.57339478 416.7726593 -56.51089478 414.7492218 C-56.84862915 414.02090149 -57.18636353 413.29258118 -57.53433228 412.54219055 C-57.8565979 411.82676086 -58.17886353 411.11133118 -58.51089478 410.3742218 C-59.04714478 409.2810968 -59.58339478 408.1879718 -60.13589478 407.0617218 C-63.65324679 397.62882323 -63.7991898 388.06836199 -63.76486206 378.10383606 C-63.76717078 376.68737392 -63.77035005 375.27091298 -63.77431655 373.85445452 C-63.78261669 369.98977123 -63.77856118 366.12518752 -63.77234411 362.26050401 C-63.76780093 358.08184547 -63.77481261 353.90320353 -63.78030396 349.72454834 C-63.78917974 341.54946352 -63.78728404 333.3744155 -63.78147867 325.19932926 C-63.77695504 318.55303895 -63.77635231 311.90675893 -63.77852631 305.26046753 C-63.77883277 304.31318496 -63.77913924 303.3659024 -63.77945499 302.3899143 C-63.78009447 300.46530322 -63.78074289 298.54069214 -63.78140017 296.61608106 C-63.78709815 278.58484366 -63.78055393 260.55362663 -63.76979944 242.52239257 C-63.76086442 227.06332415 -63.76241661 211.60428577 -63.77163696 196.1452179 C-63.782349 178.17684863 -63.78654888 160.20849719 -63.78041244 142.24012518 C-63.77977536 140.32274215 -63.77914662 138.40535911 -63.77852631 136.48797607 C-63.77821776 135.54467895 -63.7779092 134.60138183 -63.7775913 133.62949994 C-63.77586716 126.99407429 -63.7787734 120.35865998 -63.78348541 113.72323608 C-63.78910461 105.63276078 -63.78755596 97.54232427 -63.77692392 89.45185339 C-63.7716812 85.32694974 -63.76958655 81.20211068 -63.77622223 77.07720757 C-63.78221286 73.29599498 -63.77885559 69.51490643 -63.76826712 65.73370498 C-63.76499995 63.72920699 -63.77147613 61.72470027 -63.77838159 59.72021151 C-63.73423503 49.47882295 -62.96470001 40.20271336 -58.13589478 31.0617218 C-57.5506604 29.93121399 -56.96542603 28.80070618 -56.36245728 27.63594055 C-50.96220845 18.12284399 -45.58328554 12.11125372 -35.88589478 7.1242218 C-35.25973267 6.79502747 -34.63357056 6.46583313 -33.98843384 6.12666321 C-23.19035065 0.84634117 -11.84632067 -0.0677602 0 0 Z " fill="#0068FE" transform="translate(102.51089477539063,42.62577819824219)"/>
<path d="M0 0 C1.5625 2.375 1.5625 2.375 1.625 5.4375 C0.26350675 9.20162839 -0.88928052 9.62238015 -4.4375 11.375 C-6.94479862 12.07948435 -9.39943555 12.6951985 -11.9375 13.25 C-35.76435367 18.89792741 -57.90594478 32.04963483 -71.94140625 52.57421875 C-75.37995698 59.05594678 -75.45988679 66.23390139 -74.4375 73.375 C-71.34058382 82.77518021 -66.57089754 88.52311248 -58.0625 93.25 C-40.30233376 98.9087094 -20.00450943 91.38423293 -4.26025391 83.30322266 C-2.43969268 82.3761166 -0.604796 81.48685584 1.23828125 80.60546875 C11.54676628 75.63193698 21.47379784 70.00138765 31.41015625 64.328125 C32.29823975 63.8223291 33.18632324 63.3165332 34.10131836 62.79541016 C35.63310219 61.91137898 37.15654419 61.01252067 38.66625977 60.09130859 C41.98426649 58.08282143 43.37605052 57.3688869 47.375 57.5 C50.5625 58.375 50.5625 58.375 52.5625 60.375 C53 63.1875 53 63.1875 52.5625 66.375 C48.17180792 71.96664725 41.83245003 74.84132098 35.6875 78.1875 C34.5722998 78.80334961 33.45709961 79.41919922 32.30810547 80.05371094 C24.99609856 84.08098173 17.65215857 88.04784403 10.2578125 91.921875 C7.45818339 93.37708418 7.45818339 93.37708418 4.5625 95.375 C5.39394531 95.55675781 6.22539062 95.73851562 7.08203125 95.92578125 C8.16871094 96.17714844 9.25539063 96.42851562 10.375 96.6875 C11.45394531 96.93113281 12.53289062 97.17476563 13.64453125 97.42578125 C16.52818449 98.36383712 17.86851499 98.88808584 19.5625 101.375 C19.22916667 107.70833333 19.22916667 107.70833333 16.5625 110.375 C14.46875 110.60546875 14.46875 110.60546875 12.0625 110.5625 C11.2684375 110.55605469 10.474375 110.54960937 9.65625 110.54296875 C7.5625 110.375 7.5625 110.375 5.5625 109.375 C-2.38617545 108.13424119 -10.53543546 107.96280659 -18.5625 107.75 C-19.78582031 107.67910156 -21.00914062 107.60820312 -22.26953125 107.53515625 C-29.06337163 107.34565737 -29.06337163 107.34565737 -34.99926758 110.25366211 C-40.36565741 116.13484566 -43.56278543 122.69077444 -45.4375 130.375 C-44.62804932 130.23868164 -44.62804932 130.23868164 -43.80224609 130.09960938 C-31.38376869 128.07950252 -19.13356835 127.07487767 -6.5625 127.0625 C-5.29841309 127.05734375 -4.03432617 127.0521875 -2.73193359 127.046875 C12.17288778 127.15817917 28.53632812 131.01605032 40.27734375 140.8046875 C41.5625 142.375 41.5625 142.375 42 145.875 C41.5625 149.375 41.5625 149.375 39.9375 151.375 C36.7373648 152.72242535 34.91880844 152.1600771 31.5625 151.375 C29.1328125 150.10546875 29.1328125 150.10546875 26.6875 148.5625 C9.45666169 138.97698003 -10.6592173 140.05873638 -29.63989258 142.59887695 C-33.81377228 143.14435646 -37.91462255 143.45758989 -42.125 143.5546875 C-43.10073975 143.57926025 -44.07647949 143.60383301 -45.08178711 143.62915039 C-46.96772101 143.6668596 -48.85417233 143.68559761 -50.74047852 143.68139648 C-58.16919605 143.84156038 -64.01104536 145.97473816 -69.35375977 151.27661133 C-72.22349251 154.51263646 -74.31171842 156.8970664 -74.6875 161.3125 C-74.70599792 164.31551716 -74.70599792 164.31551716 -73.1875 166.125 C-65.62175024 171.52910697 -55.27515563 170.4356147 -46.44488525 169.06591797 C-36.88232708 167.40205422 -27.40280411 165.27410458 -17.93823242 163.13110352 C4.43098823 158.2997013 23.53191115 162.86715011 43.5625 173.375 C43.72540527 172.82682617 43.88831055 172.27865234 44.05615234 171.71386719 C45.8576389 165.9574493 48.20746642 160.85891792 51.1875 155.625 C51.62698975 154.84568115 52.06647949 154.0663623 52.51928711 153.26342773 C62.60434585 135.63404242 79.51907907 108.89671046 98.5625 99.375 C97.97550521 95.78436996 97.01781841 92.93750382 95.33984375 89.71484375 C94.88802734 88.84480713 94.43621094 87.97477051 93.97070312 87.07836914 C93.48537109 86.16563232 93.00003906 85.25289551 92.5 84.3125 C92.00048828 83.36947021 91.50097656 82.42644043 90.98632812 81.45483398 C87.22764082 74.44468916 83.29277817 67.78318817 78.5625 61.375 C78.1715918 60.84422852 77.78068359 60.31345703 77.37792969 59.76660156 C68.63901704 48.00866875 58.9603225 36.76636132 47.6875 27.375 C44.41966032 24.52638975 43.67468357 23.87181294 42.6875 19.5 C43.5625 16.375 43.5625 16.375 45.1875 14.375 C48.40935985 13.01842743 50.1971669 13.52004614 53.5625 14.375 C55.87890625 15.984375 55.87890625 15.984375 58.125 18.125 C58.98351562 18.94097656 59.84203125 19.75695312 60.7265625 20.59765625 C61.66242188 21.51417969 62.59828125 22.43070313 63.5625 23.375 C64.61161611 24.3740793 65.661108 25.37276411 66.7109375 26.37109375 C74.44138973 33.81741461 81.17989431 41.75538659 87.5625 50.375 C88.18511719 51.20257813 88.80773437 52.03015625 89.44921875 52.8828125 C110.5625 81.91972611 110.5625 81.91972611 110.5625 90.375 C112.15964844 89.56095703 112.15964844 89.56095703 113.7890625 88.73046875 C133.80019366 78.75856068 155.83435753 75.76821385 177.5625 82.375 C190.85427323 86.99015534 203.89271735 93.98893716 213.5625 104.375 C213.5625 105.035 213.5625 105.695 213.5625 106.375 C214.2225 106.375 214.8825 106.375 215.5625 106.375 C217.37652666 108.46278524 219.07352188 110.55554214 220.75 112.75 C221.24540283 113.39195312 221.74080566 114.03390625 222.2512207 114.6953125 C245.53258254 145.03427564 245.53258254 145.03427564 243.5625 165.375 C241.57367701 175.05711433 236.25828201 182.99139438 228.25 188.75 C218.0123467 194.92345928 208.15564664 194.7381264 196.5625 194.375 C196.43875 195.674375 196.315 196.97375 196.1875 198.3125 C195.66386672 203.09349952 194.69936165 207.70614101 193.5625 212.375 C194.779375 212.725625 195.99625 213.07625 197.25 213.4375 C207.59160298 216.90103844 219.12769427 222.35120603 224.9375 232 C228.41895837 239.23072123 228.93188888 247.47859974 226.76171875 255.23828125 C224.35492088 260.68872729 221.19687341 264.04681037 216.33203125 267.4140625 C211.32848163 269.1501319 206.21887665 269.48344455 201.26196289 267.41503906 C198.9921799 266.09923749 196.84306744 264.68271751 194.6875 263.1875 C193.12511655 262.16828575 191.55869709 261.15523134 189.98828125 260.1484375 C189.23498535 259.6647168 188.48168945 259.18099609 187.70556641 258.68261719 C183.25342887 255.96609308 178.49185037 254.03730647 173.5625 252.375 C172.06589844 251.83359375 172.06589844 251.83359375 170.5390625 251.28125 C155.81872338 247.20745852 137.35187102 249.29821509 123.5625 255.375 C122.7782666 255.71273438 121.9940332 256.05046875 121.18603516 256.3984375 C114.61577498 259.24618139 108.10652551 262.22492818 101.63378906 265.28759766 C94.35492031 268.71999226 87.09548879 271.21301208 79.3125 273.1875 C78.49652344 273.3947168 77.68054688 273.60193359 76.83984375 273.81542969 C67.26957868 276.10750044 57.81274656 276.55599719 48 276.5625 C47.02353516 276.57474609 46.04707031 276.58699219 45.04101562 276.59960938 C34.90668336 276.61994583 27.08509606 275.5572071 19.5625 268.375 C14.7833263 262.24785423 13.91072763 256.97065496 14.5625 249.375 C15.71160109 243.14687211 18.77088225 239.7459445 23.52734375 235.72265625 C25.59570206 234.35301399 27.16943652 233.90627195 29.5625 233.375 C29.54147217 232.78654297 29.52044434 232.19808594 29.4987793 231.59179688 C29.36467224 224.83227279 30.15949924 218.51384417 31.375 211.875 C31.54064453 210.90691406 31.70628906 209.93882812 31.87695312 208.94140625 C32.87567377 203.32595812 34.18286756 197.96258356 35.9831543 192.54882812 C36.73418054 190.10576891 36.73418054 190.10576891 36.5625 186.375 C27.52392225 178.37625863 13.74871164 175.25556901 2 175.1875 C0.90558594 175.17332031 -0.18882812 175.15914062 -1.31640625 175.14453125 C-10.36771203 175.44033323 -19.21763648 177.48656316 -27.96337891 179.68603516 C-38.18300808 182.21702934 -48.01338366 183.95860169 -58.5625 184 C-59.52647705 184.01047363 -60.4904541 184.02094727 -61.48364258 184.03173828 C-70.33444483 183.85570367 -77.511129 181.00058906 -83.99609375 174.921875 C-88.62273273 169.95670146 -89.02986214 164.95470956 -88.8515625 158.40625 C-87.66349403 149.70869217 -80.99808755 141.98611767 -74.25 136.6875 C-71.19918914 134.54442481 -68.27150024 133.7663446 -64.6875 132.8125 C-61.80672851 131.96382779 -61.80672851 131.96382779 -59.4375 130.375 C-58.06795972 127.43451646 -57.56537419 124.76785946 -57.05078125 121.5703125 C-56.11699655 116.70511579 -53.8389183 112.66528092 -51.4375 108.375 C-52.71625 108.313125 -53.995 108.25125 -55.3125 108.1875 C-64.33462043 107.17872748 -72.53162808 102.18222697 -78.21484375 95.1875 C-86.77771761 83.60137047 -89.91152326 71.63253044 -88.4375 57.375 C-83.72365073 38.58301794 -65.34832356 23.19689721 -49.4375 13.375 C-38.23491049 6.67304884 -12.54545865 -8.3636391 0 0 Z " fill="#F8FBFE" transform="translate(178.4375,118.625)"/>

<path d="M0 0 C13.9662764 10.9587337 29.19436873 29.15341868 34.90234375 46.27734375 C35.5731681 53.70040013 35.53915561 60.18129992 30.90234375 66.27734375 C25.97384288 71.63281871 20.44531655 74.8735758 13.09765625 75.7109375 C11.74109048 75.73456178 10.3839668 75.7349112 9.02734375 75.71484375 C8.29338379 75.70727051 7.55942383 75.69969727 6.80322266 75.69189453 C-17.48044583 74.98299562 -42.82126182 62.9220215 -59.671875 45.63671875 C-60.43113281 44.816875 -61.19039063 43.99703125 -61.97265625 43.15234375 C-64.95320759 40.04005534 -65.63060354 39.35889264 -70.03515625 38.58984375 C-73.18771162 39.01069773 -73.18771162 39.01069773 -75.09765625 41.27734375 C-75.57850968 44.29985104 -75.7076298 46.35707007 -73.9765625 48.96875 C-72.72448792 50.4407357 -71.41386784 51.86241629 -70.09765625 53.27734375 C-70.09765625 53.60734375 -70.09765625 53.93734375 -70.09765625 54.27734375 C-75.77869078 53.85070479 -80.6803183 53.08312307 -86.09765625 51.27734375 C-89.7656544 50.85962571 -89.7656544 50.85962571 -93.09765625 51.27734375 C-95.38758309 54.09266432 -95.38758309 54.09266432 -95.03515625 57.27734375 C-94.38828372 60.40565227 -94.38828372 60.40565227 -91.88330078 61.86206055 C-83.2081454 66.2695869 -73.75892505 66.61629281 -64.22265625 66.96484375 C-54.58561598 67.50609007 -48.29382317 68.69289459 -40.2578125 74.1796875 C-36.74060169 76.5143503 -33.26780709 78.0727122 -29.34765625 79.58984375 C-28.72213867 79.8326709 -28.09662109 80.07549805 -27.45214844 80.32568359 C-22.40957544 82.23502032 -17.30454302 83.88067295 -12.09765625 85.27734375 C-12.21348736 86.81972641 -12.34082197 88.36124647 -12.47265625 89.90234375 C-12.57707031 91.19011719 -12.57707031 91.19011719 -12.68359375 92.50390625 C-13.14441942 95.59056877 -14.04047449 98.34645774 -15.09765625 101.27734375 C-16.05800781 101.13296875 -17.01835937 100.98859375 -18.0078125 100.83984375 C-42.19073153 97.45513687 -67.98088593 97.59595098 -90.09765625 109.27734375 C-92.43540654 112.11307638 -92.43540654 112.11307638 -91.84765625 115.40234375 C-91.60015625 116.35109375 -91.35265625 117.29984375 -91.09765625 118.27734375 C-86.67210378 120.49011999 -81.13086355 118.61196202 -76.66015625 117.1640625 C-75.42265625 116.72707031 -74.18515625 116.29007813 -72.91015625 115.83984375 C-47.2213685 106.86401123 -20.70867476 111.03133664 3.48876953 122.20043945 C16.43731769 128.45203341 16.43731769 128.45203341 18.90234375 134.27734375 C19.76407456 138.69276092 19.36467721 142.10934344 17.71484375 146.27734375 C15.43298498 148.79525687 14.26284802 149.05200381 10.90234375 149.27734375 C8.578125 148.01953125 8.578125 148.01953125 6.21484375 146.15234375 C-1.82744108 140.16821761 -10.55405248 136.28765403 -20.09765625 133.27734375 C-21.23074219 132.91898438 -22.36382812 132.560625 -23.53125 132.19140625 C-39.58564851 128.31184499 -59.96513927 129.75966024 -75.09765625 136.27734375 C-75.8772168 136.60976074 -76.65677734 136.94217773 -77.45996094 137.28466797 C-82.57065756 139.49332575 -87.62498611 141.81484753 -92.67382812 144.16064453 C-110.2031842 152.23671974 -127.17784517 157.45093775 -146.66015625 157.46484375 C-147.56701172 157.47708984 -148.47386719 157.48933594 -149.40820312 157.50195312 C-161.65879082 157.52860415 -161.65879082 157.52860415 -166.53515625 153.02734375 C-168.43297287 149.68718651 -168.80641743 148.05740336 -168.09765625 144.27734375 C-166.03973899 141.2900445 -164.51928742 139.54872343 -160.8671875 138.8515625 C-159.30935265 138.72195471 -157.74658325 138.63995343 -156.18359375 138.61328125 C-153.54079224 138.18766153 -152.68422975 137.40106439 -151.09765625 135.27734375 C-150.68090105 132.23522944 -150.68090105 132.23522944 -151.09765625 129.27734375 C-151.75765625 128.61734375 -152.41765625 127.95734375 -153.09765625 127.27734375 C-155.0027018 92.03400115 -135.67399762 52.6623943 -113.0546875 26.7109375 C-110.61231179 23.99477585 -108.09611736 21.35816284 -105.53710938 18.75195312 C-104.14615651 17.32702854 -102.78531133 15.87290445 -101.42578125 14.41796875 C-73.98927523 -14.31730679 -34.3487066 -24.23818061 0 0 Z " fill="#0269FE" transform="translate(374.09765625,224.72265625)"/>
<path d="M0 0 C2.78506308 1.97886061 3.81084752 3.15932233 4.5625 6.5 C4 9 4 9 1.875 11.375 C-1 13 -1 13 -4.1875 12.9375 C-7 12 -7 12 -9 9 C-9.32502803 5.87973093 -9.51151479 3.85252465 -7.875 1.125 C-5.07553259 -0.55468045 -3.20195936 -0.45742277 0 0 Z " fill="#F0F6FF" transform="translate(205,119)"/>
</svg>
